<svg width="16" height="17" viewBox="0 0 16 17" fill="none" xmlns="http://www.w3.org/2000/svg">
<path d="M3.11667 9.03151H2.50128V7.96484H3.11667C3.27988 7.96484 3.4364 8.02103 3.55181 8.12105C3.66722 8.22107 3.73205 8.35673 3.73205 8.49818C3.73205 8.63963 3.66722 8.77528 3.55181 8.8753C3.4364 8.97532 3.27988 9.03151 3.11667 9.03151ZM7.42436 11.1648V7.96484H8.03974C8.20295 7.96484 8.35948 8.02103 8.47489 8.12105C8.59029 8.22107 8.65513 8.35673 8.65513 8.49818V10.6315C8.65513 10.773 8.59029 10.9086 8.47489 11.0086C8.35948 11.1087 8.20295 11.1648 8.03974 11.1648H7.42436Z" fill="#E31313"/>
<path fill-rule="evenodd" clip-rule="evenodd" d="M0 2.1C0 1.67565 0.194505 1.26869 0.540726 0.968629C0.886947 0.668571 1.35652 0.5 1.84615 0.5L11.9471 0.5L16 4.01253V14.9C16 15.3243 15.8055 15.7313 15.4593 16.0314C15.1131 16.3314 14.6435 16.5 14.1538 16.5H1.84615C1.35652 16.5 0.886947 16.3314 0.540726 16.0314C0.194505 15.7313 0 15.3243 0 14.9V2.1ZM3.07692 6.9H1.23077V12.2333H2.46154V10.1H3.07692C3.56655 10.1 4.03613 9.93143 4.38235 9.63137C4.72857 9.33131 4.92308 8.92435 4.92308 8.5C4.92308 8.07565 4.72857 7.66869 4.38235 7.36863C4.03613 7.06857 3.56655 6.9 3.07692 6.9ZM8 6.9H6.15385V12.2333H8C8.48963 12.2333 8.95921 12.0648 9.30543 11.7647C9.65165 11.4646 9.84615 11.0577 9.84615 10.6333V8.5C9.84615 8.07565 9.65165 7.66869 9.30543 7.36863C8.95921 7.06857 8.48963 6.9 8 6.9ZM11.0769 12.2333V6.9H14.7692V7.96667H12.3077V9.03333H13.5385V10.1H12.3077V12.2333H11.0769Z" fill="#E31313"/>
</svg>
