<svg width="43" height="50" viewBox="0 0 43 50" fill="none" xmlns="http://www.w3.org/2000/svg">
<path d="M13.5317 18.2189C13.9544 18.2189 14.3598 18.3934 14.6587 18.704C14.9576 19.0146 15.1255 19.4359 15.1255 19.8751V39.7501C15.1255 40.1894 14.9576 40.6107 14.6587 40.9213C14.3598 41.2319 13.9544 41.4064 13.5317 41.4064C13.109 41.4064 12.7037 41.2319 12.4048 40.9213C12.1059 40.6107 11.938 40.1894 11.938 39.7501V19.8751C11.938 19.4359 12.1059 19.0146 12.4048 18.704C12.7037 18.3934 13.109 18.2189 13.5317 18.2189ZM21.5005 18.2189C21.9232 18.2189 22.3286 18.3934 22.6274 18.704C22.9263 19.0146 23.0942 19.4359 23.0942 19.8751V39.7501C23.0942 40.1894 22.9263 40.6107 22.6274 40.9213C22.3286 41.2319 21.9232 41.4064 21.5005 41.4064C21.0778 41.4064 20.6724 41.2319 20.3735 40.9213C20.0747 40.6107 19.9067 40.1894 19.9067 39.7501V19.8751C19.9067 19.4359 20.0747 19.0146 20.3735 18.704C20.6724 18.3934 21.0778 18.2189 21.5005 18.2189ZM31.063 19.8751C31.063 19.4359 30.8951 19.0146 30.5962 18.704C30.2973 18.3934 29.8919 18.2189 29.4692 18.2189C29.0465 18.2189 28.6412 18.3934 28.3423 18.704C28.0434 19.0146 27.8755 19.4359 27.8755 19.8751V39.7501C27.8755 40.1894 28.0434 40.6107 28.3423 40.9213C28.6412 41.2319 29.0465 41.4064 29.4692 41.4064C29.8919 41.4064 30.2973 41.2319 30.5962 40.9213C30.8951 40.6107 31.063 40.1894 31.063 39.7501V19.8751Z" fill="#6F6B7D"/>
<path d="M42.219 9.9375C42.219 10.816 41.8832 11.6586 41.2854 12.2798C40.6876 12.901 39.8769 13.25 39.0315 13.25H37.4377V43.0625C37.4377 44.8196 36.7661 46.5047 35.5705 47.7471C34.375 48.9895 32.7535 49.6875 31.0627 49.6875H11.9377C10.247 49.6875 8.62548 48.9895 7.42994 47.7471C6.23439 46.5047 5.56274 44.8196 5.56274 43.0625V13.25H3.96899C3.12362 13.25 2.31286 12.901 1.71509 12.2798C1.11732 11.6586 0.781494 10.816 0.781494 9.9375V6.625C0.781494 5.74647 1.11732 4.90392 1.71509 4.28271C2.31286 3.66149 3.12362 3.3125 3.96899 3.3125H15.1252C15.1252 2.43397 15.4611 1.59142 16.0588 0.970209C16.6566 0.348995 17.4674 0 18.3127 0L24.6877 0C25.5331 0 26.3439 0.348995 26.9416 0.970209C27.5394 1.59142 27.8752 2.43397 27.8752 3.3125H39.0315C39.8769 3.3125 40.6876 3.66149 41.2854 4.28271C41.8832 4.90392 42.219 5.74647 42.219 6.625V9.9375ZM9.12637 13.25L8.75024 13.4454V43.0625C8.75024 43.941 9.08607 44.7836 9.68384 45.4048C10.2816 46.026 11.0924 46.375 11.9377 46.375H31.0627C31.9081 46.375 32.7189 46.026 33.3166 45.4048C33.9144 44.7836 34.2502 43.941 34.2502 43.0625V13.4454L33.8741 13.25H9.12637ZM3.96899 9.9375H39.0315V6.625H3.96899V9.9375Z" fill="#6F6B7D"/>
</svg>
