<svg width="20" height="20" viewBox="0 0 20 20" fill="none" xmlns="http://www.w3.org/2000/svg">
<path d="M4.60353 5.19775H3.55307C2.99587 5.19775 2.46149 5.4191 2.06749 5.8131C1.6735 6.2071 1.45215 6.74148 1.45215 7.29868V16.7528C1.45215 17.31 1.6735 17.8444 2.06749 18.2384C2.46149 18.6324 2.99587 18.8538 3.55307 18.8538H13.0072C13.5644 18.8538 14.0988 18.6324 14.4928 18.2384C14.8868 17.8444 15.1082 17.31 15.1082 16.7528V15.7024" stroke="#515151" stroke-linecap="round" stroke-linejoin="round"/>
<path d="M14.0583 3.10104L17.2097 6.25242M18.6646 4.76602C19.0783 4.3523 19.3107 3.79117 19.3107 3.20608C19.3107 2.62099 19.0783 2.05987 18.6646 1.64615C18.2509 1.23243 17.6897 1 17.1047 1C16.5196 1 15.9584 1.23243 15.5447 1.64615L6.70508 10.4543V13.6057H9.85646L18.6646 4.76602Z" stroke="#515151" stroke-linecap="round" stroke-linejoin="round"/>
</svg>
