<svg width="18" height="19" viewBox="0 0 18 19" fill="none" xmlns="http://www.w3.org/2000/svg">
<path d="M14.5815 7.90604H10.6255V3.7541C10.6255 3.31363 10.4505 2.89121 10.1391 2.57975C9.8276 2.2683 9.40518 2.09332 8.96471 2.09332H8.88582C8.47063 2.09332 8.13432 2.42963 8.13432 2.84482C8.13432 3.43772 7.95911 4.01733 7.62945 4.51058L4.81277 9.15061L2.73679 9.56581V12.057L2.3216 14.9633L4.81277 16.2099L7.93586 16.9905C8.06789 17.0237 8.20324 17.0403 8.3386 17.0403H11.6743C11.9829 17.0405 12.2855 16.9546 12.548 16.7924C12.8106 16.6302 13.0227 16.398 13.1607 16.1219L16.067 10.3092C16.1935 10.056 16.2533 9.77465 16.2405 9.49189C16.2277 9.20913 16.1429 8.93432 15.9941 8.69355C15.8452 8.45279 15.6373 8.25406 15.3901 8.11623C15.1429 7.97841 14.8645 7.90605 14.5815 7.90604Z" fill="#A29FA9"/>
<path d="M10.6255 7.90604H14.5815C14.8645 7.90605 15.1429 7.97841 15.3901 8.11623C15.6373 8.25406 15.8452 8.45279 15.9941 8.69355C16.1429 8.93432 16.2277 9.20913 16.2405 9.49189C16.2533 9.77465 16.1935 10.056 16.067 10.3092L13.1607 16.1219C13.0227 16.398 12.8106 16.6302 12.548 16.7924C12.2855 16.9546 11.9829 17.0405 11.6743 17.0403H8.3386C8.20324 17.0403 8.06789 17.0237 7.93586 16.9905L4.81277 16.2099M10.6255 7.90604V3.7541C10.6255 3.31363 10.4505 2.89121 10.1391 2.57975C9.8276 2.2683 9.40518 2.09332 8.96471 2.09332H8.88582C8.47063 2.09332 8.13432 2.42963 8.13432 2.84482C8.13432 3.43772 7.95911 4.01733 7.62944 4.51058L4.81277 9.15061L2.73679 9.56581V12.057L2.3216 14.9633L4.81277 16.2099M10.6255 7.90604H8.96471M4.81277 16.2099H3.15199C2.71152 16.2099 2.2891 16.035 1.97764 15.7235C1.66619 15.412 1.49121 14.9896 1.49121 14.5492V9.56682C1.49121 9.12636 1.66619 8.70393 1.97764 8.39248C2.2891 8.08102 2.71152 7.90604 3.15199 7.90604H5.22796" stroke="#A29FA9" stroke-width="2.49117" stroke-linecap="round" stroke-linejoin="round"/>
</svg>
