<svg width="23" height="21" viewBox="0 0 23 21" fill="none" xmlns="http://www.w3.org/2000/svg">
<path d="M10.5985 20.8845H2.11512C2.04155 20.8845 1.967 20.8845 1.89245 20.8845C1.82152 20.8919 1.74997 20.8795 1.68546 20.8488C1.67162 20.8434 1.65708 20.8401 1.6423 20.8389C1.47777 20.8041 1.32172 20.7366 1.18321 20.6403C1.04147 20.5479 0.916662 20.4313 0.814364 20.2957C0.761085 20.2205 0.713847 20.1411 0.673105 20.0583C0.638772 19.9948 0.611304 19.9272 0.580894 19.8597C0.580525 19.8568 0.580525 19.8538 0.580894 19.8508C0.562256 19.7515 0.536751 19.6522 0.52596 19.5529C0.519405 19.466 0.517768 19.3788 0.521056 19.2917V7.15965C0.521056 7.08716 0.521056 7.01566 0.521056 6.94317C0.514978 6.88041 0.526183 6.81716 0.553428 6.76045C0.559081 6.74649 0.562716 6.73177 0.564218 6.71676C0.599612 6.54809 0.666178 6.38771 0.760411 6.24407C0.847473 6.12356 0.943564 6.01002 1.04783 5.90444C1.0723 5.88019 1.10045 5.86007 1.13122 5.84486C1.21806 5.7848 1.31036 5.73326 1.40687 5.69094C1.47758 5.6494 1.5568 5.62494 1.63838 5.61944C1.6561 5.62163 1.67407 5.61888 1.69037 5.61149C1.76844 5.57365 1.85557 5.55918 1.94149 5.56979C2.03272 5.56979 2.12493 5.56979 2.21715 5.56979H11.0998C11.1439 5.56979 11.1891 5.56979 11.2332 5.56979C11.3131 5.57007 11.3912 5.59351 11.4583 5.63733C11.5254 5.68115 11.5787 5.74352 11.6119 5.81706C11.6525 5.89359 11.6657 5.98203 11.6491 6.0673C11.6379 6.13277 11.6116 6.19465 11.5724 6.24795C11.5332 6.30125 11.4822 6.34448 11.4235 6.37415C11.3376 6.41406 11.243 6.43082 11.1488 6.42281H2.11611C2.0651 6.42281 2.01801 6.42281 1.96504 6.42281C1.87624 6.4255 1.7891 6.44788 1.70978 6.48838C1.63045 6.52887 1.56087 6.58649 1.50595 6.65717C1.40411 6.77815 1.35058 6.93327 1.35586 7.09213C1.35586 8.30894 1.35586 9.52509 1.35586 10.7406V19.2708C1.35586 19.3304 1.35586 19.391 1.35586 19.4506C1.35181 19.4743 1.35278 19.4986 1.3587 19.5218C1.36462 19.5451 1.37535 19.5669 1.39019 19.5856C1.39412 19.5902 1.39683 19.5956 1.39804 19.6015C1.42943 19.7753 1.56677 19.8637 1.68644 19.966C1.69935 19.9735 1.71378 19.9779 1.72862 19.9789C1.74236 19.9789 1.76198 19.9789 1.77179 19.9858C1.86988 20.0613 1.98171 20.0335 2.08766 20.0335H19.2712C19.2961 20.0378 19.3215 20.0367 19.3459 20.0302C19.3703 20.0237 19.393 20.012 19.4125 19.9958C19.4192 19.99 19.4273 19.9862 19.436 19.9848C19.5693 19.9475 19.6825 19.8582 19.7509 19.7366C19.8284 19.6196 19.8653 19.4799 19.8559 19.3394C19.8559 17.6227 19.8559 15.9054 19.8559 14.1874C19.8559 14.1477 19.8559 14.109 19.8559 14.0703C19.8565 14.002 19.8728 13.9348 19.9034 13.8739C19.934 13.8131 19.9782 13.7603 20.0325 13.7197C20.0837 13.6856 20.1413 13.6625 20.2017 13.6519C20.2621 13.6413 20.3241 13.6434 20.3836 13.6581C20.4925 13.7078 20.6142 13.7525 20.6456 13.8945C20.7152 13.969 20.6946 14.0623 20.6946 14.1497C20.6946 15.8756 20.6946 17.6022 20.6946 19.3294C20.6946 19.4009 20.6946 19.4734 20.6946 19.5449C20.6877 19.5914 20.6768 19.6373 20.6622 19.682C20.6622 19.6939 20.6505 19.7058 20.6515 19.7157C20.6524 19.8018 20.6296 19.8864 20.5857 19.96C20.5574 20.0453 20.5156 20.1255 20.4621 20.1974C20.417 20.254 20.3827 20.3215 20.3307 20.3751C20.2472 20.4763 20.1477 20.5629 20.0364 20.6313C19.9589 20.671 19.8902 20.7306 19.8127 20.7644C19.7426 20.7922 19.6709 20.8154 19.5979 20.8339C19.5587 20.8458 19.5194 20.8577 19.4792 20.8667C19.4509 20.8742 19.422 20.8789 19.3929 20.8806C19.3007 20.8806 19.2084 20.8855 19.1162 20.8855L10.5985 20.8845Z" fill="#5A5A5A"/>
<path d="M22.5071 5.5133C22.5071 5.80128 22.5071 6.09026 22.5071 6.37824C22.5071 6.44676 22.4924 6.51528 22.4865 6.5838C22.4786 6.6702 22.4698 6.75659 22.4659 6.84299C22.462 6.92938 22.46 7.0416 22.458 7.1409C22.4571 7.20822 22.4468 7.27506 22.4276 7.33951C22.414 7.40075 22.4077 7.46344 22.409 7.5262C22.4115 7.6221 22.3983 7.71774 22.3698 7.80922C22.3573 7.86455 22.3523 7.92135 22.355 7.97804C22.3623 8.03806 22.3488 8.09878 22.3168 8.14984C22.314 8.15505 22.3123 8.1608 22.3119 8.16672C22.3055 8.27945 22.2864 8.39106 22.255 8.49939C22.2344 8.56791 22.255 8.64735 22.2079 8.71488C22.1942 8.73772 22.201 8.77347 22.1961 8.80326C22.1966 8.82696 22.1916 8.85043 22.1814 8.87178C22.1566 8.91284 22.1427 8.95972 22.1412 9.00783C22.135 9.03602 22.1254 9.06336 22.1127 9.08926C22.1074 9.09947 22.1028 9.1101 22.099 9.12104C22.0774 9.20048 22.0588 9.28092 22.0343 9.35838C22.0097 9.43583 21.9891 9.48549 21.9636 9.54805C21.9381 9.61061 21.9126 9.66423 21.8871 9.72282C21.8616 9.78141 21.843 9.83107 21.8175 9.8837C21.7893 9.94763 21.7565 10.0094 21.7194 10.0684C21.6527 10.1677 21.5997 10.273 21.535 10.3723C21.4908 10.4398 21.4369 10.5063 21.4015 10.5798C21.3641 10.6443 21.3218 10.7057 21.275 10.7635C21.1445 10.9413 21.0052 11.1121 20.864 11.2819C20.7404 11.4289 20.605 11.5629 20.4716 11.7C20.3096 11.8706 20.1373 12.0308 19.9556 12.1796C19.8918 12.2303 19.8349 12.2908 19.7731 12.3445C19.7113 12.3981 19.6505 12.4438 19.5897 12.4904C19.4916 12.5669 19.3984 12.6444 19.3013 12.7188C19.2042 12.7933 19.1208 12.8509 19.0296 12.9175C18.9383 12.984 18.8608 13.0346 18.7755 13.0912C18.6902 13.1478 18.6254 13.1905 18.5509 13.2372C18.4763 13.2839 18.4135 13.3276 18.3458 13.3743C18.3105 13.3981 18.2683 13.405 18.236 13.4398C18.2036 13.4746 18.1487 13.4795 18.1075 13.5043C18.0463 13.5551 17.9755 13.5926 17.8995 13.6146C17.8357 13.69 17.7337 13.701 17.6582 13.7606C17.5911 13.8088 17.515 13.8426 17.4345 13.8599C17.3911 13.8753 17.345 13.8815 17.2991 13.8781C17.2532 13.8747 17.2084 13.8617 17.1677 13.84C17.1116 13.8113 17.0539 13.7858 16.995 13.7635C16.9528 13.7468 16.9126 13.7251 16.8754 13.699C16.8057 13.6434 16.7145 13.6265 16.6517 13.5609C16.587 13.5689 16.5536 13.5123 16.4987 13.4885C16.433 13.4565 16.3697 13.4197 16.3094 13.3782C16.2368 13.3325 16.1652 13.2839 16.0945 13.2362C15.969 13.1515 15.8431 13.0674 15.7168 12.984C15.6256 12.9224 15.5324 12.8648 15.4422 12.8033C15.3882 12.7665 15.3382 12.7238 15.2862 12.6841L15.0419 12.4855C14.9743 12.4309 14.9076 12.3723 14.8389 12.3186C14.6439 12.1588 14.4576 11.9884 14.2807 11.8082C14.1424 11.6712 14.0178 11.5202 13.8815 11.3812C13.8074 11.3111 13.7379 11.2361 13.6735 11.1568C13.5788 11.0456 13.4898 10.9296 13.4067 10.8092C13.341 10.7049 13.2595 10.6106 13.1899 10.5113C13.1399 10.4378 13.0918 10.3594 13.0516 10.2829C13.0113 10.2064 12.9633 10.1379 12.924 10.0624C12.8704 9.97622 12.8241 9.88552 12.7857 9.79134C12.7651 9.73176 12.7278 9.67714 12.7014 9.61955C12.6836 9.56724 12.6633 9.51587 12.6405 9.46562C12.617 9.42292 12.6131 9.36632 12.5885 9.31965C12.564 9.27297 12.566 9.20942 12.5356 9.15579C12.5159 9.10115 12.4992 9.04546 12.4855 8.98896C12.4556 8.89395 12.4333 8.79665 12.4188 8.698C12.41 8.66126 12.3992 8.62451 12.3884 8.58777C12.3822 8.57437 12.3773 8.56041 12.3737 8.54606C12.3531 8.41399 12.3355 8.28092 12.3139 8.14885C12.306 8.10217 12.2903 8.05748 12.2805 8.01081C12.2736 7.9757 12.2687 7.94023 12.2658 7.90455C12.2655 7.80584 12.252 7.70763 12.2256 7.6126C12.2125 7.55096 12.2069 7.48793 12.2089 7.42491C12.2092 7.3247 12.1983 7.22476 12.1765 7.127C12.1637 7.05629 12.1588 6.98433 12.1618 6.9125C12.1559 6.76255 12.1618 6.61459 12.1452 6.46265C12.0834 5.91747 12.1196 5.3703 12.1167 4.82611C12.1667 4.47755 12.1422 4.12502 12.1746 3.77646C12.1893 3.62155 12.1922 3.46564 12.2168 3.31271C12.2259 3.25014 12.2494 3.19061 12.2853 3.13888C12.3213 3.08715 12.3687 3.04465 12.4237 3.01479C12.4773 2.98521 12.5365 2.9676 12.5974 2.96316C12.6317 2.96316 12.6641 2.94032 12.6955 2.93436C12.7504 2.92542 12.8063 2.92145 12.8622 2.91648C12.9156 2.91819 12.9686 2.90623 13.0163 2.88173C13.049 2.86883 13.0841 2.86308 13.1193 2.86484C13.1784 2.86846 13.2374 2.85467 13.289 2.82512C13.3164 2.80526 13.3645 2.81618 13.4018 2.80824C13.441 2.79907 13.4797 2.78746 13.5175 2.77348C13.5234 2.77348 13.5283 2.76455 13.5322 2.76554C13.6303 2.77646 13.7167 2.70894 13.8128 2.70198C13.8452 2.70198 13.8785 2.70198 13.8991 2.66723C13.905 2.6573 13.9256 2.65531 13.9393 2.65332C13.9904 2.64538 14.0472 2.65332 14.0845 2.60467C14.1699 2.6136 14.2366 2.55005 14.317 2.54012C14.3361 2.53454 14.3543 2.52618 14.371 2.51529C14.3808 2.50933 14.3896 2.49642 14.3994 2.49642C14.4558 2.48782 14.5102 2.46934 14.5603 2.44181C14.6397 2.40804 14.7212 2.38322 14.7977 2.3425C14.8558 2.31631 14.9154 2.29376 14.9762 2.27497C15.0302 2.25313 15.0841 2.23227 15.1361 2.20745C15.1881 2.18262 15.2342 2.15084 15.2862 2.12602C15.4101 2.07266 15.5312 2.013 15.6492 1.94727C15.7473 1.88471 15.8581 1.83108 15.9582 1.76356C16.0249 1.71887 16.1004 1.68014 16.1691 1.63446C16.2403 1.59766 16.3064 1.55122 16.3653 1.49643C16.3957 1.47097 16.4285 1.44868 16.4634 1.42989C16.5703 1.35243 16.6782 1.27597 16.7832 1.19454C16.8881 1.11311 16.9666 1.03863 17.0647 0.969118C17.1171 0.930211 17.1776 0.904131 17.2416 0.892931C17.3056 0.88173 17.3713 0.885714 17.4335 0.90457C17.4965 0.9269 17.555 0.960539 17.6062 1.00387C17.6866 1.06445 17.7602 1.13297 17.8377 1.20248C17.9337 1.26726 18.0254 1.33824 18.1124 1.415C18.1393 1.4365 18.1686 1.45482 18.1997 1.46961C18.2739 1.52725 18.3519 1.57967 18.4331 1.62651C18.5126 1.66226 18.5695 1.72582 18.6539 1.7576C18.7153 1.78808 18.7743 1.82327 18.8304 1.86286C18.8785 1.88868 18.9217 1.92443 18.9697 1.94925C19.057 1.99295 19.1463 2.03068 19.2336 2.07438C19.3209 2.11807 19.4033 2.17368 19.4896 2.21142C19.5446 2.23823 19.6074 2.25015 19.6594 2.27994C19.7113 2.30973 19.7947 2.3286 19.8555 2.36733C19.9182 2.39815 19.984 2.42212 20.0517 2.43883C20.0655 2.43883 20.0861 2.43883 20.092 2.45273C20.1126 2.4855 20.1459 2.48351 20.1763 2.49146C20.2033 2.50018 20.2293 2.51183 20.2538 2.52622C20.2587 2.52622 20.2626 2.53714 20.2666 2.53615C20.35 2.52522 20.4108 2.59374 20.4902 2.60169C20.5339 2.61387 20.5765 2.62947 20.6178 2.64836C20.6619 2.66028 20.7159 2.6424 20.7453 2.69205L20.7492 2.69288L20.7531 2.69205C20.8512 2.68113 20.9287 2.75561 21.0249 2.7566C21.0589 2.76183 21.092 2.7722 21.123 2.78739C21.1318 2.78739 21.1396 2.7993 21.1475 2.79831C21.2672 2.78838 21.3721 2.85988 21.4908 2.86286C21.5439 2.8563 21.5977 2.86858 21.6429 2.89761C21.6532 2.90402 21.6651 2.90745 21.6772 2.90754C21.803 2.91772 21.9281 2.93496 22.0519 2.95918C22.1492 2.97247 22.2388 3.01992 22.305 3.09324C22.3408 3.12758 22.369 3.16926 22.3876 3.2155C22.4062 3.26174 22.4148 3.31147 22.4129 3.36137C22.4079 3.43644 22.4193 3.51172 22.4463 3.58182C22.4549 3.61078 22.4585 3.641 22.4571 3.6712C22.4571 3.79036 22.4571 3.91052 22.4659 4.03068C22.4747 4.19255 22.4894 4.35342 22.5012 4.51529C22.5061 4.58977 22.51 4.66524 22.511 4.73972C22.511 4.99791 22.511 5.2561 22.511 5.51429L22.5071 5.5133ZM13.0055 3.7854C13.0055 3.81122 13.0055 3.84697 13.0055 3.8847C13.0006 4.05551 12.9976 4.22631 12.9888 4.39711C12.9888 4.46266 12.9613 4.5272 12.9613 4.59572C12.9613 5.20843 12.9613 5.82015 12.9613 6.43286C12.962 6.45983 12.9646 6.48672 12.9692 6.5133C12.979 6.58976 12.9966 6.66623 13.0006 6.74368C13.0084 6.87874 13.0084 7.01379 13.0123 7.14885C13.0093 7.1758 13.0113 7.20308 13.0182 7.22928C13.0521 7.34111 13.0667 7.45802 13.0614 7.57486C13.0587 7.61379 13.0634 7.65288 13.0751 7.69006C13.1006 7.75059 13.113 7.81594 13.1114 7.88172C13.1114 7.9264 13.1163 7.97208 13.1242 8.01677C13.1349 8.08032 13.1506 8.14388 13.1634 8.20743C13.1683 8.23127 13.1634 8.25609 13.1732 8.27893C13.2036 8.39313 13.236 8.50634 13.2654 8.62054C13.288 8.70892 13.3056 8.79929 13.3262 8.88866C13.3258 8.89461 13.3258 8.90059 13.3262 8.90654C13.3547 8.97605 13.3851 9.04557 13.4106 9.11607C13.4277 9.18655 13.451 9.25534 13.4802 9.32163C13.5077 9.36731 13.5195 9.42094 13.545 9.46165C13.5705 9.50237 13.6009 9.56096 13.6264 9.61061C13.6454 9.66172 13.669 9.71093 13.697 9.75758C13.7822 9.86933 13.8617 9.98533 13.9354 10.1051C14.0031 10.2045 14.0816 10.3038 14.1493 10.4031C14.2006 10.4738 14.2556 10.5418 14.3141 10.6066C14.3915 10.7083 14.4761 10.8042 14.5672 10.8936C14.6653 10.986 14.7496 11.0922 14.8438 11.1856C14.9056 11.2491 14.9752 11.3038 15.04 11.3663C15.0861 11.413 15.1381 11.4477 15.1881 11.4914C15.3237 11.6182 15.4658 11.7375 15.6138 11.8489C15.6963 11.9115 15.7708 11.983 15.8532 12.0475C15.9356 12.1121 16.0268 12.1677 16.1151 12.2253C16.175 12.264 16.2348 12.3028 16.2927 12.3425C16.3506 12.3822 16.4369 12.4358 16.5065 12.4855C16.5477 12.5153 16.587 12.5461 16.6291 12.5729C16.6929 12.6156 16.7586 12.6553 16.8253 12.694C16.8714 12.7208 16.9234 12.7427 16.9666 12.7695C17.0706 12.8301 17.1726 12.8946 17.2785 12.9512C17.2991 12.9621 17.3345 12.9512 17.3619 12.9433C17.3795 12.9351 17.3959 12.9247 17.411 12.9125L17.5758 12.8201C17.6425 12.7814 17.7082 12.7407 17.772 12.702C17.823 12.6722 17.876 12.6454 17.927 12.6146C17.9947 12.5729 18.0614 12.5272 18.129 12.4845C18.171 12.4669 18.2106 12.4438 18.2468 12.416C18.3106 12.3609 18.3796 12.3123 18.4528 12.271C18.5371 12.2054 18.6293 12.1518 18.7147 12.0883C18.8128 12.0108 18.9168 11.9294 19.0178 11.8489L19.2042 11.696L19.4229 11.5133C19.4887 11.4587 19.5573 11.406 19.6191 11.3465C19.7359 11.2323 19.8438 11.1091 19.9615 10.9969C20.1202 10.8347 20.2702 10.664 20.4108 10.4855C20.4463 10.427 20.4859 10.3712 20.5295 10.3187C20.6021 10.242 20.6677 10.1589 20.7257 10.0704C20.7811 9.99606 20.83 9.91698 20.8718 9.83404C20.9386 9.72574 20.9985 9.61331 21.0513 9.4974C21.0739 9.44179 21.1112 9.3981 21.1367 9.33951C21.1617 9.28466 21.1833 9.22827 21.2014 9.17069C21.225 9.09621 21.2446 9.02074 21.2662 8.94527C21.2675 8.9395 21.2706 8.9343 21.275 8.93037C21.3093 8.90555 21.3044 8.86781 21.3093 8.83107C21.3142 8.79432 21.3093 8.78241 21.3221 8.77049C21.3523 8.72934 21.3669 8.67861 21.3633 8.62749C21.3663 8.60395 21.3712 8.5807 21.378 8.55798C21.3933 8.52026 21.4045 8.48097 21.4114 8.4408C21.4202 8.31965 21.4859 8.20843 21.4751 8.0833C21.4751 8.07536 21.4849 8.06742 21.4869 8.05947C21.4996 8.01717 21.5094 7.97403 21.5163 7.93037C21.5139 7.86368 21.5199 7.79695 21.534 7.73177C21.5638 7.6317 21.5774 7.5274 21.5742 7.42293C21.5742 7.37526 21.5801 7.32362 21.587 7.27993C21.6014 7.21936 21.6125 7.15803 21.6203 7.09622C21.6282 6.94627 21.6291 6.7983 21.6331 6.64637C21.6331 6.61657 21.6331 6.58678 21.6409 6.55699C21.6562 6.47794 21.6667 6.39802 21.6723 6.31767C21.6723 5.82114 21.6723 5.32462 21.6723 4.8281C21.677 4.72279 21.6707 4.61729 21.6537 4.5133C21.6346 4.39848 21.6257 4.28216 21.6272 4.16574C21.6223 4.05749 21.6223 3.94925 21.6203 3.84101C21.6203 3.81519 21.6203 3.78937 21.6203 3.78341C21.5222 3.69304 21.4123 3.70397 21.3084 3.69702C21.2966 3.69702 21.2799 3.69702 21.275 3.68808C21.2377 3.63942 21.1848 3.65432 21.1357 3.64736C21.1043 3.64736 21.0651 3.64736 21.0376 3.63048C21.0013 3.60464 20.9574 3.59203 20.913 3.59473C20.8712 3.59787 20.8297 3.58552 20.7963 3.55998C20.7818 3.55002 20.7648 3.54451 20.7472 3.54409C20.6953 3.53813 20.6393 3.54409 20.6001 3.49841C20.516 3.48982 20.4336 3.46839 20.3558 3.43485C20.2783 3.41102 20.1999 3.39017 20.1233 3.36633C20.0959 3.35739 20.0723 3.33853 20.0449 3.32959C19.9762 3.30576 19.9046 3.28887 19.8369 3.26306C19.7692 3.23724 19.7113 3.20546 19.6476 3.17765C19.5995 3.1568 19.5495 3.13793 19.5014 3.11906C19.4397 3.10499 19.3803 3.08226 19.3248 3.05154C19.2836 3.01877 19.2375 3.02075 19.1983 2.99692C19.1434 2.96415 19.0855 2.93634 19.0276 2.90754C18.9894 2.88868 18.9501 2.8708 18.9109 2.85392C18.8716 2.83704 18.804 2.81122 18.7529 2.78441C18.7019 2.75759 18.6548 2.72185 18.6087 2.69503C18.5276 2.66191 18.4497 2.62101 18.3762 2.57289C18.3301 2.53416 18.2782 2.52125 18.2281 2.48252C18.1577 2.43426 18.0839 2.39112 18.0074 2.35342C17.9378 2.31072 17.873 2.25412 17.8053 2.21241C17.7013 2.13992 17.5964 2.06941 17.4934 1.99692C17.461 1.97408 17.4326 1.94429 17.4012 1.91946C17.3783 1.90025 17.3495 1.88973 17.3197 1.88973C17.29 1.88973 17.2612 1.90025 17.2383 1.91946C17.202 1.94628 17.1657 1.97507 17.1285 2.00189C17.0304 2.07041 16.9323 2.13893 16.8391 2.2005C16.7635 2.26141 16.6823 2.31495 16.5968 2.36038C16.5173 2.39513 16.4575 2.45968 16.3761 2.49047C16.3152 2.51529 16.2603 2.56395 16.1956 2.58977C16.1855 2.59512 16.176 2.60144 16.1671 2.60864C16.0945 2.65233 16.0229 2.7 15.9484 2.74071C15.8954 2.76054 15.8437 2.78342 15.7934 2.80923C15.7331 2.84826 15.6694 2.88151 15.6031 2.90854C15.5501 2.93336 15.4961 2.95521 15.4441 2.98004C15.3922 3.00486 15.3323 3.03763 15.2744 3.06445C15.2166 3.09126 15.1371 3.12502 15.0684 3.15382C14.9998 3.18262 14.9497 3.20049 14.8899 3.22333C14.8144 3.25313 14.7398 3.28391 14.6643 3.31171C14.5887 3.33952 14.5338 3.36037 14.4681 3.37924C14.4024 3.39811 14.3052 3.42194 14.2248 3.4428C14.2189 3.4428 14.215 3.45074 14.2091 3.45273L14.1032 3.48947L14.0051 3.52323C13.9899 3.53089 13.9737 3.53624 13.957 3.53912C13.8975 3.53494 13.8384 3.55217 13.7902 3.58778C13.7001 3.59534 13.6113 3.61504 13.5264 3.64637C13.4655 3.66127 13.3959 3.63743 13.3449 3.69404C13.339 3.70099 13.3223 3.70099 13.3105 3.7C13.2023 3.69355 13.095 3.72358 13.0055 3.7854Z" fill="#5A5A5A"/>
<path d="M5.78399 13.3732C5.72415 13.3077 5.66824 13.2491 5.61527 13.1875C5.54758 13.1081 5.48087 13.0287 5.41907 12.9462C5.3676 12.8808 5.31979 12.8125 5.27585 12.7417C5.25324 12.6894 5.22803 12.6384 5.20032 12.5887C5.1601 12.5391 5.15323 12.4745 5.11596 12.4219C5.08393 12.3593 5.06081 12.2924 5.04729 12.2233C5.03989 12.2015 5.03104 12.1803 5.0208 12.1597C5.0208 12.1518 5.00903 12.1458 5.00707 12.1379C4.98549 12.0386 4.96096 11.9393 4.94429 11.835C4.94337 11.778 4.93067 11.7219 4.90701 11.6702C4.89836 11.6509 4.89465 11.6297 4.89622 11.6086C4.89622 11.41 4.89622 11.2114 4.89622 11.0128C4.89446 10.9977 4.89614 10.9824 4.90112 10.9681C4.94919 10.8926 4.92172 10.7993 4.95115 10.7258C4.98647 10.6354 4.9747 10.5272 5.0365 10.4507C5.03989 10.4461 5.04193 10.4406 5.04238 10.4348C5.02963 10.3524 5.08947 10.2928 5.11105 10.2213C5.1457 10.1332 5.18943 10.049 5.24152 9.97008C5.28076 9.89858 5.31901 9.82708 5.36414 9.75956C5.46168 9.60541 5.57913 9.46514 5.71336 9.34248C5.77909 9.28587 5.835 9.21636 5.89877 9.15578C5.92904 9.1293 5.96191 9.10601 5.99686 9.08627C6.11645 9.00046 6.24238 8.9241 6.37355 8.85787C6.47165 8.81616 6.55797 8.75857 6.65313 8.72182C6.7322 8.7028 6.81015 8.67927 6.8866 8.65132C6.9945 8.59173 7.12007 8.6255 7.22699 8.5679C7.24916 8.55928 7.27305 8.55621 7.29664 8.55896C7.51343 8.55896 7.72925 8.55896 7.94604 8.55896C7.97937 8.56349 8.0122 8.57114 8.04414 8.5818C8.08141 8.58975 8.11869 8.59769 8.15695 8.60266C8.21332 8.59845 8.2695 8.61311 8.31684 8.64437C8.32371 8.65132 8.33941 8.65032 8.35118 8.65231C8.45069 8.67201 8.54707 8.70542 8.63762 8.75161C8.73274 8.78685 8.82576 8.82763 8.91621 8.87376C9.02031 8.92768 9.11888 8.99188 9.2105 9.06542C9.25661 9.1101 9.31841 9.13692 9.36648 9.18458C9.42828 9.24714 9.50185 9.29779 9.56267 9.36035C9.62989 9.4242 9.69099 9.49436 9.74513 9.56988C9.81773 9.65784 9.88334 9.75147 9.94132 9.84992C9.98056 9.93532 10.0394 10.0108 10.0836 10.0932C10.1037 10.15 10.1266 10.2056 10.1522 10.2601C10.1993 10.3286 10.1807 10.4209 10.2405 10.4815C10.2414 10.4841 10.2414 10.4869 10.2405 10.4894C10.2611 10.5887 10.2847 10.6881 10.3004 10.7874C10.3023 10.8472 10.3143 10.9063 10.3357 10.9621C10.3467 10.9898 10.3514 11.0197 10.3494 11.0495C10.3494 11.2243 10.3494 11.3981 10.3494 11.5719C10.3518 11.5958 10.3484 11.62 10.3396 11.6424C10.3114 11.7116 10.2974 11.7859 10.2984 11.8608C10.2909 11.9014 10.2801 11.9413 10.266 11.98C10.266 11.9879 10.2562 11.9969 10.2572 12.0048C10.252 12.093 10.2283 12.179 10.1875 12.2571C10.1744 12.3253 10.1459 12.3895 10.1042 12.4448C10.0757 12.4755 10.0953 12.5441 10.0443 12.5649C10.0078 12.6833 9.94772 12.7928 9.86775 12.8867C9.77375 13.0318 9.66311 13.1651 9.53815 13.2839C9.50937 13.3128 9.48219 13.3433 9.45673 13.3752C9.54109 13.402 9.61564 13.4229 9.68922 13.4487C9.72355 13.4606 9.75396 13.4855 9.78731 13.4964C9.82066 13.5073 9.8599 13.4964 9.87854 13.5391C9.88022 13.5415 9.88242 13.5434 9.88497 13.5448C9.88753 13.5462 9.89036 13.547 9.89326 13.547C9.96192 13.5331 10.0041 13.5927 10.0551 13.6165C10.1261 13.6482 10.1941 13.6864 10.2582 13.7307C10.3327 13.7844 10.4122 13.83 10.4867 13.8817C10.5348 13.9155 10.577 13.9591 10.6221 13.9959C10.7602 14.1031 10.8862 14.2253 10.9978 14.3603C11.0879 14.4632 11.1712 14.572 11.247 14.6861C11.2911 14.7585 11.3451 14.8251 11.3892 14.8966C11.4108 14.9293 11.4098 14.9691 11.4432 15.0038C11.475 15.051 11.4986 15.1034 11.5128 15.1587C11.5305 15.2014 11.5472 15.2441 11.5658 15.2859C11.5942 15.3524 11.6237 15.4179 11.6521 15.4845C11.6592 15.5009 11.6638 15.5183 11.6659 15.5361C11.666 15.5777 11.6787 15.6182 11.7022 15.6523C11.713 15.6735 11.7187 15.697 11.7188 15.7208C11.7174 15.772 11.7311 15.8225 11.7581 15.8658C11.7636 15.8762 11.767 15.8877 11.7679 15.8996C11.7865 16.0843 11.8101 16.268 11.8218 16.4517C11.8307 16.5987 11.8218 16.7496 11.8218 16.8936C11.8306 16.9802 11.8178 17.0676 11.7846 17.1478C11.7785 17.1647 11.7755 17.1825 11.7757 17.2004C11.7713 17.2502 11.7577 17.2988 11.7355 17.3434C11.709 17.3921 11.6953 17.4517 11.6698 17.5053C11.6033 17.6343 11.5213 17.7544 11.4255 17.8628C11.3645 17.9271 11.2989 17.9869 11.2293 18.0416C11.1547 18.0926 11.077 18.139 10.9968 18.1806C10.9331 18.2153 10.8674 18.2421 10.8006 18.2729L10.784 18.2779C10.6692 18.2988 10.5534 18.3186 10.4377 18.3375C10.4139 18.3395 10.3899 18.3395 10.3661 18.3375H4.87366C4.77591 18.3485 4.677 18.3341 4.58623 18.2958C4.56269 18.2829 4.52836 18.2908 4.49893 18.2848C4.4695 18.2789 4.44497 18.267 4.41751 18.257C4.40227 18.2491 4.38654 18.2421 4.37042 18.2362C4.26938 18.206 4.17486 18.1568 4.09183 18.0912C4.06054 18.0667 4.02778 18.0441 3.99373 18.0237C3.88018 17.9414 3.78076 17.8407 3.69944 17.7258C3.62775 17.637 3.57197 17.5361 3.53464 17.4279C3.49269 17.3529 3.46946 17.2687 3.46695 17.1826C3.46936 17.1675 3.46659 17.1521 3.4591 17.1389C3.4225 17.0664 3.4088 16.9842 3.41987 16.9035C3.41987 16.7297 3.41987 16.556 3.41987 16.3812C3.4136 16.2915 3.4263 16.2014 3.45714 16.117C3.46611 16.082 3.47007 16.0459 3.46891 16.0098C3.46522 15.941 3.47978 15.8724 3.5111 15.8112C3.52581 15.7893 3.51796 15.7526 3.52385 15.7228C3.52973 15.693 3.54445 15.6563 3.55426 15.6235C3.5626 15.6018 3.56948 15.5796 3.57486 15.557C3.58074 15.5192 3.57486 15.4785 3.6141 15.4527C3.62194 15.4527 3.62391 15.4318 3.62587 15.4209C3.64855 15.3367 3.68151 15.2556 3.72397 15.1796C3.74653 15.127 3.77301 15.0733 3.79852 15.0237C3.81693 14.9672 3.84665 14.9151 3.88582 14.8708C3.91231 14.8469 3.92114 14.8042 3.94174 14.7715C4.01411 14.6575 4.09271 14.5478 4.17717 14.4428C4.32152 14.2628 4.48613 14.1005 4.66765 13.9591C4.75387 13.9055 4.83412 13.8425 4.90701 13.7715C5.00511 13.7615 5.04336 13.6553 5.13852 13.6503C5.16304 13.5877 5.24937 13.6195 5.27683 13.5589C5.27683 13.55 5.3043 13.552 5.31803 13.546C5.33177 13.5401 5.36904 13.5232 5.39553 13.5133C5.42718 13.507 5.45809 13.4973 5.48774 13.4845C5.57309 13.4368 5.68001 13.4249 5.78399 13.3732ZM7.6184 17.4894C8.51402 17.4894 9.40964 17.4894 10.3062 17.4894C10.4705 17.4957 10.6313 17.4402 10.7575 17.3335C10.8274 17.2771 10.8835 17.205 10.9213 17.123C10.9651 17.0301 10.9866 16.928 10.9841 16.8251C10.9753 16.6811 10.9841 16.5371 10.9792 16.3931C10.982 16.351 10.9776 16.3087 10.9664 16.268C10.9184 16.1419 10.9429 16.0018 10.8811 15.8767C10.8477 15.8102 10.8487 15.7248 10.8134 15.6602C10.7487 15.5381 10.6967 15.41 10.6251 15.2908C10.5642 15.1915 10.4877 15.1002 10.4289 15.0008C10.3918 14.9482 10.3494 14.8996 10.3023 14.8559C10.2405 14.7933 10.1777 14.7317 10.1061 14.6741C10.0345 14.6165 9.98743 14.5977 9.93642 14.55C9.87006 14.4964 9.79915 14.4489 9.72453 14.408C9.68039 14.3782 9.62055 14.3693 9.57837 14.3375C9.48116 14.2758 9.37437 14.2312 9.2625 14.2054C9.15886 14.1614 9.04817 14.1368 8.93583 14.1329C8.92409 14.1335 8.91237 14.1315 8.9015 14.127C8.82464 14.0946 8.74107 14.082 8.65822 14.0902C7.9637 14.0902 7.26917 14.0902 6.57465 14.0902C6.42803 14.1011 6.28223 14.1214 6.13812 14.1508H6.12929C5.99294 14.1995 5.85658 14.2451 5.72219 14.2988C5.67374 14.3167 5.62655 14.3379 5.58093 14.3623C5.47695 14.4209 5.38474 14.4924 5.28664 14.5609C5.24346 14.587 5.20245 14.6165 5.16402 14.6493C5.08358 14.7248 5.01197 14.8102 4.92761 14.8807C4.83508 14.9721 4.75374 15.0745 4.68531 15.1856C4.61866 15.2858 4.55963 15.391 4.50874 15.5003C4.45782 15.6067 4.41359 15.7161 4.37631 15.8281C4.34497 15.9301 4.32265 16.0348 4.3096 16.1409C4.30874 16.1587 4.30577 16.1764 4.30077 16.1935C4.27027 16.2686 4.25783 16.3499 4.26448 16.4308C4.26448 16.5629 4.26448 16.695 4.26448 16.8281C4.26234 16.9948 4.32336 17.1561 4.43501 17.2787C4.54666 17.4013 4.70047 17.476 4.86483 17.4874C4.90897 17.4874 4.9541 17.4874 4.99824 17.4874L7.6184 17.4894ZM7.6184 13.2362C7.92339 13.2378 8.22413 13.1638 8.4944 13.0207C8.74342 12.8943 8.95977 12.7107 9.12614 12.4845C9.31463 12.2351 9.44022 11.943 9.49204 11.6334C9.51266 11.5188 9.52023 11.4022 9.5146 11.2859C9.51134 11.0107 9.44809 10.7397 9.32939 10.4922C9.21069 10.2446 9.03946 10.0267 8.82793 9.85389C8.48693 9.5606 8.05309 9.40128 7.60564 9.40504C7.43522 9.40748 7.26579 9.43184 7.10143 9.47753C6.9429 9.52208 6.79133 9.58893 6.65117 9.67614C6.50846 9.76274 6.3781 9.86865 6.26368 9.99093C6.1479 10.1071 6.04883 10.2391 5.96939 10.3832C5.88676 10.527 5.82436 10.6817 5.78399 10.843C5.74115 11.0103 5.72037 11.1826 5.72219 11.3554C5.7361 11.8552 5.94058 12.3302 6.29279 12.6809C6.645 13.0315 7.11759 13.2305 7.61153 13.2362H7.6184Z" fill="#5A5A5A"/>
<path d="M16.6157 18.3405C15.9291 18.3405 15.2424 18.3405 14.5557 18.3405C14.4354 18.3459 14.3174 18.3063 14.2241 18.2293C14.1841 18.197 14.1527 18.155 14.1329 18.1071C14.1027 18.0453 14.0859 17.9775 14.0839 17.9085C14.0852 17.8293 14.109 17.7522 14.1522 17.6862C14.1955 17.6202 14.2566 17.5681 14.3281 17.5361C14.3942 17.5044 14.4669 17.4894 14.54 17.4924C15.9206 17.4924 17.3004 17.4924 18.6797 17.4924C18.7917 17.4908 18.9008 17.5291 18.9877 17.6007C19.045 17.6558 19.087 17.7251 19.1098 17.8017C19.1325 17.8784 19.135 17.9597 19.1172 18.0376C19.0927 18.1083 19.052 18.1722 18.9985 18.2239C18.9449 18.2757 18.8801 18.314 18.8092 18.3355C18.7628 18.3456 18.7152 18.3486 18.6679 18.3445H16.6079L16.6157 18.3405Z" fill="#5A5A5A"/>
<path d="M15.7695 15.7704C15.3487 15.7704 14.9279 15.7704 14.507 15.7704C14.4395 15.767 14.3734 15.7489 14.3134 15.7172C14.2535 15.6854 14.2011 15.6409 14.1598 15.5866C14.1247 15.5367 14.101 15.4796 14.0903 15.4194C14.0796 15.3591 14.0822 15.2972 14.098 15.2381C14.1203 15.1379 14.18 15.0503 14.2647 14.9938C14.3221 14.9477 14.3926 14.9216 14.4658 14.9193C14.507 14.9193 14.5492 14.9193 14.5904 14.9193H16.9555C16.9997 14.9193 17.0448 14.9193 17.0889 14.9193C17.1563 14.9309 17.22 14.9585 17.2749 14.9997C17.3298 15.041 17.3743 15.0947 17.4048 15.1566C17.432 15.2196 17.4483 15.2867 17.4529 15.3553C17.4523 15.4238 17.435 15.4912 17.4025 15.5513C17.37 15.6114 17.3232 15.6625 17.2665 15.6998C17.2009 15.7479 17.1219 15.7736 17.0409 15.7733C16.6171 15.7674 16.1933 15.7704 15.7695 15.7704Z" fill="#5A5A5A"/>
<path d="M20.7196 6.00328C20.728 6.06352 20.7207 6.12494 20.6983 6.1814C20.6759 6.23786 20.6393 6.28739 20.5921 6.32503L19.9672 6.95462C19.5094 7.41804 19.0516 7.88146 18.5939 8.34488L17.7581 9.19195C17.7151 9.24285 17.6663 9.28851 17.6129 9.328C17.5651 9.36218 17.5103 9.38509 17.4526 9.39506C17.3949 9.40502 17.3357 9.40179 17.2794 9.38559C17.1876 9.35053 17.1055 9.29365 17.04 9.21976C16.9419 9.12045 16.8438 9.02115 16.7457 8.91588C16.6476 8.81062 16.524 8.69046 16.4122 8.57825C16.3004 8.46604 16.1748 8.3429 16.0581 8.22373C15.96 8.12443 15.8717 8.02512 15.7765 7.92582C15.6814 7.82651 15.5862 7.73615 15.4901 7.64181C15.3626 7.51569 15.2321 7.39156 15.1095 7.26147C15.0796 7.21881 15.0567 7.17152 15.0418 7.12145C15.0324 7.09964 15.0248 7.07705 15.0192 7.05393C15.0075 7.02226 15.0031 6.98828 15.0065 6.95462C15.0225 6.84388 15.0743 6.74161 15.1536 6.66366C15.2203 6.60714 15.3024 6.57251 15.3891 6.56436C15.4606 6.55842 15.5325 6.56962 15.599 6.59705C15.6654 6.62448 15.7246 6.66737 15.7716 6.72225C15.9237 6.87518 16.0796 7.02513 16.2307 7.17806C16.4956 7.44618 16.7575 7.71629 17.0214 7.98441C17.1273 8.09265 17.2362 8.19891 17.3441 8.30516C17.3912 8.35084 17.4157 8.34588 17.4638 8.29722C17.5452 8.21579 17.6325 8.13932 17.7139 8.0569C17.8415 7.92781 17.9651 7.79672 18.0916 7.66564L18.4202 7.31808C18.5036 7.23267 18.585 7.14529 18.6694 7.06187C18.8028 6.9298 18.9392 6.8007 19.0726 6.66465C19.1815 6.55542 19.2884 6.4442 19.3963 6.33397C19.4787 6.25055 19.564 6.16912 19.6455 6.08471C19.7269 6.00031 19.7985 5.91888 19.8779 5.83844C19.9574 5.758 20.0212 5.70041 20.0947 5.63288C20.1087 5.62272 20.1243 5.61501 20.1408 5.61004L20.2488 5.5733C20.2654 5.56704 20.283 5.56401 20.3007 5.56436C20.3673 5.56548 20.4328 5.58104 20.4929 5.61C20.5529 5.63895 20.6062 5.68062 20.649 5.73218C20.6818 5.76803 20.7055 5.81152 20.7178 5.8588C20.7301 5.90608 20.7307 5.9557 20.7196 6.00328Z" fill="#5A5A5A"/>
</svg>
